<?xml version="1.0" encoding="utf-8"?>
<!-- Generator: Adobe Illustrator 21.0.0, SVG Export Plug-In . SVG Version: 6.00 Build 0)  -->
<svg version="1.1" id="Layer_1" xmlns="http://www.w3.org/2000/svg" xmlns:xlink="http://www.w3.org/1999/xlink" x="0px" y="0px"
	 viewBox="0 0 300 300" style="enable-background:new 0 0 300 300;" xml:space="preserve">
<style type="text/css">
	.st0{fill:#00E2BF;}
</style>
<g>
	<g>
		<g>
			<circle class="st0" cx="201.7" cy="86.8" r="6.1"/>
			<circle class="st0" cx="232.6" cy="41.4" r="8.5"/>
			<circle class="st0" cx="184.6" cy="21" r="6.1"/>
			<circle class="st0" cx="118.3" cy="27.2" r="3.9"/>
			<circle class="st0" cx="72.4" cy="68.7" r="6.1"/>
			<circle class="st0" cx="67.6" cy="120.2" r="8.6"/>
			<circle class="st0" cx="96.6" cy="155.4" r="3"/>
			<circle class="st0" cx="147.6" cy="174.9" r="6.1"/>
			<circle class="st0" cx="184.6" cy="205.2" r="3.4"/>
			<circle class="st0" cx="147.6" cy="231.8" r="6.1"/>
			<circle class="st0" cx="99.6" cy="211.3" r="6.1"/>
			<circle class="st0" cx="66.5" cy="255.9" r="9"/>
			<circle class="st0" cx="118.3" cy="281.2" r="3.9"/>
			<circle class="st0" cx="190.8" cy="275.1" r="6.1"/>
			<circle class="st0" cx="235" cy="231.8" r="7.6"/>
			<circle class="st0" cx="235" cy="172.1" r="6.1"/>
			<circle class="st0" cx="193" cy="137.3" r="4.3"/>
			<circle class="st0" cx="138.5" cy="117.7" r="6.1"/>
			<circle class="st0" cx="126.2" cy="83.8" r="4"/>
			<circle class="st0" cx="162.6" cy="71.5" r="6.1"/>
		</g>
		<g>
			<path class="st0" d="M118,282.4l-53.3-26.1l34.5-46.4l48.2,20.6l35.3-25.4L147,175.9l-51.1-19.5l-29.5-35.8l4.9-52.5L117.8,26
				l67.1-6.2l49.5,21l-32.2,47.4l-39.6-15.4l-34.9,11.8l11.7,32.2l54.2,19.4l0.2,0.1l42.4,35.2v60.7l-0.4,0.3l-44.5,43.5L118,282.4z
				 M68.2,255.4l50.2,24.6l71.8-6.1l43.5-42.6v-58.7l-41.4-34.4l-54.8-19.7l-12.9-35.5l37.9-12.8l38.6,15.1l29.5-43.5l-46.4-19.7
				l-65.7,6.1L73.6,69.2l-4.7,50.6l28.5,34.6l50.9,19.5l38.4,31.4l-38.8,27.9L100,212.7L68.2,255.4z"/>
			<polygon class="st0" points="146.4,175.1 137.4,118.4 71.7,69.6 73.1,67.7 139.6,117.1 148.7,174.7 			"/>
			<polygon class="st0" points="68.2,121.2 67,119.2 124.9,83.3 116.6,23.9 162.9,70.2 232.1,40.3 233,42.4 162.4,72.9 119.9,30.4 
				127.5,84.4 			"/>
			
				<rect x="193.2" y="19.6" transform="matrix(0.9608 -0.2774 0.2774 0.9608 -7.5413 56.0581)" class="st0" width="2.3" height="70.1"/>
			
				<rect x="109.1" y="211.5" transform="matrix(0.9742 -0.2259 0.2259 0.9742 -52.9042 31.2884)" class="st0" width="2.3" height="70.6"/>
			<polygon class="st0" points="185.8,205.2 183.5,205.1 187.4,138.7 96.8,156.5 96.4,154.2 189.9,135.8 			"/>
			<polygon class="st0" points="192.2,278.2 147.3,233.1 66.8,254.6 66.2,252.3 147.9,230.5 189.3,272 183.4,204.6 234.3,171.2 
				235.6,173.1 185.9,205.7 			"/>
			
				<rect x="208.6" y="190" transform="matrix(0.4684 -0.8835 0.8835 0.4684 -81.5116 301.5168)" class="st0" width="2.3" height="56.9"/>
		</g>
	</g>
</g>
</svg>
